# xmcd
#
# Track frame offsets:
#	180
#	17199
#	31059
#	42927
#	54541
#	77106
#	86279
#	103968
#	116603
#	127686
#	137372
#	162675
#	187608
#	197653
#
# Disc length: 2822
#
# Revision: 1
# Processed by: cddbd v1.5.1PL0 Copyright (c) Steve Scherf et al.
# Submitted via: CDex 1.40Beta9
# Normalized: r0:DSETVAR1
#
DISCID=aa0b040e
DTITLE=Various Artist - TEXAS MONTHLY Honed on the Range
DYEAR=1995
DGENRE=Country
TTITLE0=Asleep at the Wheel - Fat Boy Rag
TTITLE1=Willie Nelson with Asleep at the Wheel - The Kind of Love I Can't Forget
TTITLE2=Cowboys and Indians - Drivin' You Out of My Mind
TTITLE3=Dave Alexander and the Legends of Western Swing - Deep in the Heart of Texas
TTITLE4=Tommy Morrell and the Time Warp Top Hands - Mississippi Delta Trilogy
TTITLE5=Alvin Crow - Fiddler's Lady
TTITLE6=Ace in the Hole Band - You're Something Special to Me
TTITLE7=Johnny Gimble and Texas Swing - Under the X in Texas
TTITLE8=Clay Blaker and the Texas Honky-Tonk Band - If You Can't Take the Heat
TTITLE9=Maryanne Price - Oilwell, Texas
TTITLE10=Clifford Scott - Killer Joe
TTITLE11=Herb Ellis - Undecided
TTITLE12=Girls of the Texas Playboys - We're the Texas Playgirls
TTITLE13=Don Walser - Cowpoke
EXTD=YEAR: 1995 ID3G: 2
EXTT0=
EXTT1=
EXTT2=
EXTT3=
EXTT4=
EXTT5=
EXTT6=
EXTT7=
EXTT8=
EXTT9=
EXTT10=
EXTT11=
EXTT12=
EXTT13=
PLAYORDER=
